<svg width="824" height="824" viewBox="0 0 824 824" fill="none" xmlns="http://www.w3.org/2000/svg">
<rect x="37" y="37" width="750" height="750" rx="148" stroke="#000000" stroke-width="74"/>
<mask id="mask0_0_1" style="mask-type:luminance" maskUnits="userSpaceOnUse" x="55" y="55" width="745" height="745">
<path d="M800 55H55V800H800V55Z" fill="white"/>
</mask>
<g mask="url(#mask0_0_1)">
<path d="M55.6717 416.572L87.8224 418.328L112.828 420.505L134.262 423.236L152.123 426.366L169.985 430.546L184.274 434.867L198.563 440.283L209.28 445.217L219.997 451.034L230.714 457.878L241.43 465.901L252.147 475.278L262.864 486.182L273.581 498.797L280.725 508.241L287.869 518.563L295.015 529.799L305.732 548.387L316.449 568.976L327.166 591.264L352.171 644.784L359.317 658.17L366.461 669.327L370.034 673.802L373.605 677.405L377.178 680.053L380.748 681.679L384.322 682.247L387.895 681.735L391.465 680.162L395.039 677.564L398.612 674.01L402.182 669.579L405.755 664.37L412.899 652.048L420.045 637.901L434.333 607.138L448.623 576.623L459.34 555.385L470.057 536.078L480.774 518.842L491.491 503.655L502.208 490.401L512.925 478.916L523.642 469.027L534.359 460.547L545.074 453.309L555.79 447.148L566.507 441.918L580.797 436.175L595.087 431.589L609.375 427.937L627.236 424.413L648.67 421.333L673.677 418.877L702.255 417.066L741.549 415.638L766.556 415.11" stroke="#000000" stroke-opacity="0.5" stroke-width="74" stroke-linecap="square"/>
<path d="M55.6717 413.075L105.684 411.749L141.406 409.846L166.412 407.659L187.846 404.921L205.708 401.782L223.569 397.588L237.858 393.256L252.147 387.824L262.864 382.878L273.581 377.042L284.298 370.18L295.015 362.134L305.732 352.734L316.449 341.8L327.166 329.155L334.31 319.691L341.454 309.343L348.6 298.084L359.317 279.462L370.034 258.837L380.748 236.528L405.755 183.035L412.899 169.696L420.045 158.607L423.616 154.176L427.189 150.62L430.762 148.023L434.333 146.449L437.906 145.939L441.479 146.504L445.05 148.132L448.623 150.781L452.196 154.384L455.767 158.858L462.911 170.015L470.057 183.401L480.774 205.868L502.208 251.942L512.925 273.148L523.642 292.421L534.359 309.622L545.074 324.775L555.79 337.997L566.507 349.452L577.224 359.318L587.941 367.772L598.658 374.992L609.375 381.134L620.092 386.347L634.382 392.077L648.67 396.649L662.96 400.289L680.821 403.805L702.255 406.873L727.262 409.325L755.839 411.128L766.556 411.613" stroke="#000000" stroke-opacity="0.5" stroke-width="74" stroke-linecap="square"/>
<path d="M55.6717 415.555L98.5391 417.073L130.69 419.158L155.696 421.723L177.129 424.902L194.991 428.493L209.28 432.159L223.569 436.691L237.858 442.25L252.147 449.009L262.864 454.967L273.581 461.747L284.298 469.377L298.586 480.83L316.449 496.686L330.737 509.399L337.883 515.075L345.027 519.74L352.171 522.801L355.744 523.509L359.317 523.539L362.888 522.789L366.461 521.156L370.034 518.547L373.605 514.875L377.178 510.079L380.748 504.116L384.322 496.979L387.895 488.691L391.465 479.312L398.612 457.708L405.755 433.312L423.616 370.477L430.762 348.873L434.333 339.494L437.906 331.206L441.479 324.069L445.05 318.106L448.623 313.31L452.196 309.638L455.767 307.029L459.34 305.396L462.911 304.646L466.484 304.676L470.057 305.384L477.201 308.445L484.345 313.11L495.062 321.859L530.786 353.253L541.503 361.447L552.22 368.793L562.937 375.294L573.654 380.987L587.941 387.432L602.231 392.716L616.521 397.016L634.382 401.249L652.243 404.464L673.677 407.302L698.684 409.59L730.832 411.447L766.556 412.63" stroke="#000000" stroke-width="74" stroke-linecap="square"/>
</g>
</svg>
