<svg width="339" height="339" viewBox="0 0 339 339" fill="none" xmlns="http://www.w3.org/2000/svg">
<g id="logo 1" clip-path="url(#clip0_0_1)">
<path id="Vector" d="M15.4091 170.075L29.347 170.836L40.1875 171.78L49.4794 172.964L57.2227 174.321L64.966 176.133L71.1606 178.006L77.3552 180.354L82.0011 182.493L86.6471 185.015L91.2931 187.982L95.939 191.46L100.585 195.525L105.231 200.252L109.877 205.721L112.974 209.815L116.071 214.29L119.169 219.161L123.815 227.219L128.461 236.145L133.107 245.807L143.947 269.009L147.045 274.812L150.142 279.649L151.691 281.589L153.239 283.151L154.788 284.299L156.336 285.004L157.885 285.25L159.434 285.028L160.982 284.346L162.531 283.22L164.08 281.679L165.628 279.758L167.177 277.5L170.274 272.158L173.372 266.025L179.566 252.689L185.761 239.46L190.407 230.253L195.053 221.883L199.699 214.411L204.345 207.827L208.991 202.081L213.637 197.102L218.283 192.815L222.929 189.139L227.574 186.001L232.22 183.33L236.866 181.063L243.061 178.573L249.256 176.585L255.45 175.002L263.193 173.474L272.485 172.139L283.326 171.074L295.715 170.289L312.75 169.67L323.591 169.441" stroke="#000000" stroke-opacity="0.5" stroke-width="20" stroke-linecap="square"/>
<path id="Vector_2" d="M15.4091 168.559L37.0902 167.984L52.5767 167.159L63.4173 166.211L72.7092 165.024L80.4525 163.663L88.1957 161.845L94.3904 159.967L100.585 157.612L105.231 155.468L109.877 152.938L114.523 149.963L119.169 146.475L123.815 142.4L128.461 137.66L133.107 132.178L136.204 128.075L139.301 123.589L142.399 118.708L147.045 110.635L151.691 101.694L156.336 92.0224L167.177 68.8322L170.274 63.0494L173.372 58.2424L174.92 56.3214L176.469 54.7798L178.018 53.6539L179.566 52.9715L181.115 52.7502L182.664 52.9955L184.212 53.7013L185.761 54.8494L187.31 56.4115L188.858 58.3509L191.955 63.1878L195.053 68.9908L199.699 78.7309L208.991 98.7049L213.637 107.898L218.283 116.253L222.929 123.71L227.574 130.279L232.22 136.011L236.866 140.977L241.512 145.254L246.158 148.919L250.804 152.049L255.45 154.712L260.096 156.972L266.291 159.456L272.485 161.438L278.68 163.016L286.423 164.54L295.715 165.87L306.556 166.933L318.945 167.715L323.591 167.925" stroke="#000000" stroke-opacity="0.5" stroke-width="20" stroke-linecap="square"/>
<path id="Vector_3" d="M15.4091 169.634L33.9929 170.292L47.9308 171.196L58.7714 172.308L68.0633 173.686L75.8065 175.243L82.0011 176.832L88.1957 178.797L94.3904 181.207L100.585 184.137L105.231 186.72L109.877 189.659L114.523 192.967L120.717 197.932L128.461 204.806L134.655 210.317L137.753 212.778L140.85 214.8L143.947 216.127L145.496 216.434L147.045 216.447L148.593 216.122L150.142 215.414L151.691 214.283L153.239 212.691L154.788 210.612L156.336 208.027L157.885 204.933L159.434 201.34L160.982 197.274L164.08 187.908L167.177 177.332L174.92 150.092L178.018 140.726L179.566 136.66L181.115 133.067L182.664 129.973L184.212 127.388L185.761 125.309L187.31 123.717L188.858 122.586L190.407 121.878L191.955 121.553L193.504 121.566L195.053 121.873L198.15 123.2L201.247 125.222L205.893 129.015L221.38 142.625L226.026 146.177L230.672 149.362L235.318 152.18L239.964 154.648L246.158 157.442L252.353 159.733L258.548 161.597L266.291 163.432L274.034 164.826L283.326 166.056L294.167 167.048L308.104 167.853L323.591 168.366" stroke="#000000" stroke-width="20" stroke-linecap="square"/>
<path id="Vector_4" d="M46.3 13.5H292.4C310.5 13.5 325.2 28.2 325.2 46.3V292.4C325.2 310.5 310.5 325.2 292.4 325.2H46.3C28.2 325.2 13.5 310.5 13.5 292.4V46.3C13.5 28.2 28.2 13.5 46.3 13.5Z" stroke="#000000" stroke-width="27" stroke-linecap="round" stroke-linejoin="round"/>
</g>
<defs>
<clipPath id="clip0_0_1">
<rect width="338.8" height="338.8" fill="white"/>
</clipPath>
</defs>
</svg>
