<svg width="256" height="256" viewBox="0 0 256 256" fill="none" xmlns="http://www.w3.org/2000/svg">
<path d="M137.17 40.6465L138.2 40.8057L139.848 41.0605L141.371 41.7373L142.401 42.1953L143.59 42.7246L144.646 43.4863L145.676 44.2314L146.443 44.7861L147.118 45.4502L148.148 46.4639L148.63 46.9365L149.057 47.459L150.087 48.7168L150.503 49.2256L150.863 49.7744L152.924 52.9131L153.199 53.3311L153.439 53.7705L155.501 57.5361L155.639 57.7881L155.765 58.0469L158.856 64.3672L158.884 64.4219L158.91 64.4775L165.003 77.252L167.882 82.8066L170.697 87.7451L173.418 92.0029L176.059 95.6445L178.6 98.7002L181.054 101.26L183.45 103.41L185.787 105.209L188.126 106.745L190.455 108.048L192.771 109.146L196.078 110.439L199.438 111.488L202.869 112.341L207.369 113.204L212.971 113.986L219.736 114.633L227.618 115.118L230.616 115.251L243.104 115.802L242.558 128.202L242.821 140.963L230.323 141.22L223.222 141.365L212.136 141.758L204.254 142.245L197.532 142.889L191.924 143.675L187.409 144.544L183.99 145.396L180.631 146.447L177.328 147.742L175.014 148.844L172.679 150.152L170.348 151.688L168.001 153.5L165.611 155.649L163.155 158.217L160.604 161.294L157.972 164.932L155.239 169.217L152.428 174.157L149.539 179.739L145.516 188.117L145.517 188.118L141.395 196.772L141.305 196.961L141.209 197.146L139.147 201.127L138.979 201.451L138.793 201.765L136.732 205.231L136.487 205.644L136.211 206.036L135.181 207.501L134.901 207.897L134.593 208.271L133.562 209.518L133.124 210.048L132.631 210.527L131.6 211.527L130.909 212.197L130.125 212.753L129.094 213.484L128.015 214.249L126.8 214.771L125.77 215.214L124.228 215.876L122.565 216.108L121.534 216.253L119.711 216.508L117.892 216.226L116.86 216.066L115.219 215.812L113.7 215.138L112.67 214.68L111.479 214.15L110.421 213.387L109.391 212.642L108.622 212.086L107.945 211.421L106.915 210.407L106.437 209.936L106.011 209.416L104.98 208.157L104.563 207.648L104.203 207.099L102.143 203.96L101.867 203.541L101.627 203.102L99.5654 199.336L99.4033 199.04L99.2568 198.734L92.0801 183.755L89.1016 177.712L86.2324 172.339L83.4219 167.585L81.6455 164.86L79.8828 162.377L78.1934 160.198L75.6436 157.271L73.207 154.854L70.8232 152.82L68.4932 151.12L66.1631 149.669L63.8154 148.428L61.4854 147.381L58.1641 146.152L54.8174 145.166L50.3809 144.153L45.8398 143.377L40.1689 142.673L33.4199 142.1L24.335 141.616L11.8535 140.952L12.5078 128.649L12.1807 115.978L24.6768 115.654L38.9424 115.285L48.873 114.77L55.6416 114.191L61.2979 113.487L65.8291 112.71L70.2725 111.692L73.6016 110.708L76.9326 109.474L79.2607 108.426L81.6084 107.18L83.9346 105.727L86.2754 104.013L88.6553 101.977L91.0859 99.5596L93.6426 96.6172L95.3398 94.4238L97.0957 91.9443L98.8711 89.2148L101.685 84.4482L104.551 79.0693L107.54 73L114.716 58.0322L114.864 57.7217L115.03 57.4189L117.092 53.666L117.338 53.2178L117.619 52.792L119.681 49.6719L120.049 49.1162L120.474 48.6016L121.504 47.3555L121.941 46.8262L122.434 46.3477L123.465 45.3467L124.155 44.6758L124.941 44.1191L125.973 43.3887L127.05 42.624L128.264 42.1025L129.294 41.6602L130.84 40.9951L132.506 40.7637L133.537 40.6191L135.355 40.3662L137.17 40.6465ZM130.046 83.8877L129.987 84.0068L126.896 90.2832L126.809 90.4619L126.715 90.6387L123.623 96.4404L123.495 96.6807L123.356 96.915L120.265 102.154L120.126 102.39L119.977 102.619L117.915 105.787L117.782 105.991L117.641 106.19L115.58 109.102L115.426 109.319L115.263 109.53L113.202 112.193L112.984 112.474L112.752 112.741L109.66 116.299L109.363 116.641L109.042 116.961L105.95 120.036L105.617 120.368L105.259 120.674L102.168 123.318L101.809 123.626L101.427 123.905L98.335 126.169L97.9629 126.441L97.5723 126.686L94.4805 128.616L94.1094 128.848L93.7227 129.054L90.6309 130.695L90.2705 130.887L89.8975 131.054L86.8066 132.445L86.4199 132.619L86.0215 132.767L85.8428 132.832L85.9561 132.915L86.3379 133.194L86.6982 133.502L89.79 136.14L90.1475 136.445L90.4805 136.775L93.5723 139.843L93.8945 140.163L94.1934 140.506L97.2852 144.055L97.5186 144.323L97.7363 144.604L99.7969 147.261L99.96 147.471L100.114 147.688L102.175 150.592L102.317 150.792L102.451 150.997L104.513 154.158L104.663 154.389L104.803 154.625L107.895 159.854L108.033 160.089L108.161 160.33L111.253 166.122L111.348 166.3L111.437 166.48L114.528 172.75L114.56 172.813L114.59 172.877L119.853 183.862L122.945 177.369L122.954 177.351L122.963 177.333L127.085 168.748L127.166 168.58L127.251 168.415L130.343 162.44L130.458 162.218L130.581 162.001L133.673 156.569L133.828 156.297L133.996 156.033L137.088 151.185L137.285 150.874L137.501 150.577L140.592 146.305L140.834 145.971L141.097 145.653L144.188 141.925L144.472 141.583L144.779 141.262L147.87 138.03L148.193 137.693L148.541 137.381L151.632 134.599L151.983 134.282L152.357 133.994L155.449 131.608L155.818 131.323L156.208 131.066L159.299 129.03L159.673 128.784L160.062 128.565L163.154 126.832L163.519 126.628L163.896 126.448L166.987 124.978L167.386 124.787L167.797 124.627L169.274 124.047L167.828 122.935L167.452 122.646L167.1 122.329L164.008 119.554L163.661 119.242L163.339 118.905L160.247 115.683L159.938 115.361L159.654 115.02L156.562 111.3L156.299 110.981L156.056 110.647L152.965 106.385L152.749 106.087L152.551 105.776L149.46 100.938L149.29 100.673L149.135 100.399L146.043 94.9775L145.919 94.7598L145.804 94.5381L142.712 88.5723L142.617 88.3887L142.528 88.2021L136.398 75.3516L135.256 73.0156L130.046 83.8877Z" fill="black" fill-opacity="0.5"/>
</svg>
