<?xml version="1.0" encoding="utf-8"?>
<!-- Generator: Adobe Illustrator 27.0.0, SVG Export Plug-In . SVG Version: 6.00 Build 0)  -->
<svg version="1.1" id="图层_1" xmlns="http://www.w3.org/2000/svg" xmlns:xlink="http://www.w3.org/1999/xlink" x="0px" y="0px"
	 viewBox="0 0 1643.4 374.6" style="enable-background:new 0 0 1643.4 374.6;" xml:space="preserve">
<style type="text/css">
	.st0{fill:none;stroke:#57606E;stroke-width:5.5;stroke-linecap:round;stroke-miterlimit:10;}
	.st1{enable-background:new    ;}
	.st2{fill:#57606E;stroke:#57606E;stroke-width:16;stroke-linecap:round;stroke-linejoin:round;stroke-miterlimit:10;}
	.st3{fill:none;stroke:#57606E;stroke-width:13;stroke-linecap:round;stroke-miterlimit:10;}
	.st4{fill:none;stroke:#57606E;stroke-width:12.0171;stroke-linecap:round;stroke-miterlimit:10;}
	.st5{fill:#57606E;}
</style>
<line class="st0" x1="1282.3" y1="207.7" x2="1282.3" y2="242.7"/>
<g id="图层_5">
	<g>
		<g class="st1">
			<path class="st2" d="M110.9,118.7l-66.5,108h69.2v9.1H32.7v-7.6l66.5-108H34.6v-9.1h76.3V118.7z"/>
			<path class="st2" d="M160.2,111.2v115.6h60.7v9.1h-69.8V111.2H160.2z"/>
			<path class="st2" d="M415.8,235.8h-9.5l-15-43.9h-45.8l-15,43.9h-9.7l42.7-124.6h9.5L415.8,235.8z M368.1,125.2l-19.6,57.7h39.9
				l-19.6-57.7H368.1z"/>
			<path class="st2" d="M515.6,149.1v86.7h-8.7v-15.3h-0.6c-2.6,5.5-6.4,9.8-11.4,12.9c-5,3.1-10.6,4.7-16.6,4.7
				c-9.2,0-16.5-3.1-21.7-9.1c-5.2-6.1-7.8-14.6-7.8-25.6v-54.2h8.7v52.6c0,8.8,2,15.7,6.2,20.6c4.1,4.9,9.6,7.4,16.6,7.4
				c5.2,0,9.8-1.3,13.9-3.9c4-2.6,7.2-6.1,9.4-10.6c2.2-4.5,3.3-9.3,3.3-14.6v-51.6H515.6z"/>
			<path class="st2" d="M627.6,235.8H619V219h-0.6c-2.7,6-6.5,10.7-11.4,14.1c-4.9,3.4-10.6,5-16.9,5c-6.8,0-12.8-2-18.1-5.9
				c-5.3-4-9.5-9.5-12.5-16.5c-3-7-4.5-14.9-4.5-23.7c0-8.7,1.5-16.5,4.5-23.3c3-6.9,7.2-12.2,12.5-16.1c5.3-3.8,11.4-5.8,18.1-5.8
				c6,0,11.5,1.7,16.4,5.2c4.9,3.5,8.9,8.2,11.9,14.3h0.6v-55.1h8.6V235.8z M615.7,173.6c-2.3-5.5-5.6-9.9-9.8-13
				c-4.2-3.1-9-4.7-14.3-4.7c-5.4,0-10.2,1.5-14.5,4.6c-4.3,3.1-7.6,7.4-10,12.9c-2.4,5.6-3.6,11.9-3.6,19c0,7.1,1.2,13.5,3.7,19
				c2.4,5.6,5.8,9.9,10.1,12.9c4.3,3.1,9.2,4.6,14.6,4.6c5.3,0,10-1.5,14.2-4.6c4.2-3.1,7.4-7.4,9.7-12.9c2.3-5.5,3.4-11.8,3.4-18.9
				C619.2,185.5,618,179.1,615.7,173.6z"/>
			<path class="st2" d="M681.6,121c-1.2,1.3-2.9,1.9-5,1.9c-2,0-3.5-0.6-4.7-1.9c-1.1-1.3-1.7-2.9-1.7-5c0-2.2,0.6-3.9,1.7-5.2
				c1.1-1.3,2.7-1.9,4.7-1.9c2.1,0,3.7,0.7,5,2s1.9,3,1.9,5.1C683.5,118,682.9,119.7,681.6,121z M681.2,149.1V236h-8.7v-86.9H681.2z
				"/>
			<path class="st2" d="M739.6,232.4c-5.5-3.8-9.8-9.1-12.9-16.1s-4.6-14.9-4.6-23.9c0-9,1.5-17,4.6-23.9s7.3-12.3,12.9-16.1
				c5.5-3.8,11.8-5.7,19-5.7c7.3,0,13.7,1.9,19.2,5.7c5.5,3.8,9.8,9.1,12.8,16.1c3.1,6.9,4.6,14.9,4.6,23.9c0,9-1.5,17-4.6,23.9
				c-3.1,6.9-7.3,12.3-12.8,16.1c-5.5,3.8-11.9,5.7-19.2,5.7C751.4,238.1,745.1,236.2,739.6,232.4z M773.2,224.9
				c4.2-3.1,7.5-7.4,9.8-13c2.3-5.6,3.5-12.1,3.5-19.5c0-7.4-1.2-13.8-3.5-19.5c-2.3-5.6-5.6-9.9-9.8-13c-4.2-3.1-9.1-4.6-14.6-4.6
				s-10.3,1.5-14.5,4.6c-4.2,3.1-7.4,7.4-9.7,13c-2.3,5.6-3.5,12.1-3.5,19.5c0,7.4,1.2,13.8,3.5,19.5s5.6,9.9,9.7,13
				c4.2,3.1,9,4.6,14.5,4.6S769,228,773.2,224.9z"/>
		</g>
		<g class="st1">
			<path class="st2" d="M110.9,118.7l-66.5,108h69.2v9.1H32.7v-7.6l66.5-108H34.6v-9.1h76.3V118.7z"/>
			<path class="st2" d="M160.2,111.2v115.6h60.7v9.1h-69.8V111.2H160.2z"/>
			<path class="st2" d="M415.8,235.8h-9.5l-15-43.9h-45.8l-15,43.9h-9.7l42.7-124.6h9.5L415.8,235.8z M368.1,125.2l-19.6,57.7h39.9
				l-19.6-57.7H368.1z"/>
			<path class="st2" d="M515.6,149.1v86.7h-8.7v-15.3h-0.6c-2.6,5.5-6.4,9.8-11.4,12.9c-5,3.1-10.6,4.7-16.6,4.7
				c-9.2,0-16.5-3.1-21.7-9.1c-5.2-6.1-7.8-14.6-7.8-25.6v-54.2h8.7v52.6c0,8.8,2,15.7,6.2,20.6c4.1,4.9,9.6,7.4,16.6,7.4
				c5.2,0,9.8-1.3,13.9-3.9c4-2.6,7.2-6.1,9.4-10.6c2.2-4.5,3.3-9.3,3.3-14.6v-51.6H515.6z"/>
			<path class="st2" d="M627.6,235.8H619V219h-0.6c-2.7,6-6.5,10.7-11.4,14.1c-4.9,3.4-10.6,5-16.9,5c-6.8,0-12.8-2-18.1-5.9
				c-5.3-4-9.5-9.5-12.5-16.5c-3-7-4.5-14.9-4.5-23.7c0-8.7,1.5-16.5,4.5-23.3c3-6.9,7.2-12.2,12.5-16.1c5.3-3.8,11.4-5.8,18.1-5.8
				c6,0,11.5,1.7,16.4,5.2c4.9,3.5,8.9,8.2,11.9,14.3h0.6v-55.1h8.6V235.8z M615.7,173.6c-2.3-5.5-5.6-9.9-9.8-13
				c-4.2-3.1-9-4.7-14.3-4.7c-5.4,0-10.2,1.5-14.5,4.6c-4.3,3.1-7.6,7.4-10,12.9c-2.4,5.6-3.6,11.9-3.6,19c0,7.1,1.2,13.5,3.7,19
				c2.4,5.6,5.8,9.9,10.1,12.9c4.3,3.1,9.2,4.6,14.6,4.6c5.3,0,10-1.5,14.2-4.6c4.2-3.1,7.4-7.4,9.7-12.9c2.3-5.5,3.4-11.8,3.4-18.9
				C619.2,185.5,618,179.1,615.7,173.6z"/>
			<path class="st2" d="M681.6,121c-1.2,1.3-2.9,1.9-5,1.9c-2,0-3.5-0.6-4.7-1.9c-1.1-1.3-1.7-2.9-1.7-5c0-2.2,0.6-3.9,1.7-5.2
				c1.1-1.3,2.7-1.9,4.7-1.9c2.1,0,3.7,0.7,5,2s1.9,3,1.9,5.1C683.5,118,682.9,119.7,681.6,121z M681.2,149.1V236h-8.7v-86.9H681.2z
				"/>
			<path class="st2" d="M739.6,232.4c-5.5-3.8-9.8-9.1-12.9-16.1s-4.6-14.9-4.6-23.9c0-9,1.5-17,4.6-23.9s7.3-12.3,12.9-16.1
				c5.5-3.8,11.8-5.7,19-5.7c7.3,0,13.7,1.9,19.2,5.7c5.5,3.8,9.8,9.1,12.8,16.1c3.1,6.9,4.6,14.9,4.6,23.9c0,9-1.5,17-4.6,23.9
				c-3.1,6.9-7.3,12.3-12.8,16.1c-5.5,3.8-11.9,5.7-19.2,5.7C751.4,238.1,745.1,236.2,739.6,232.4z M773.2,224.9
				c4.2-3.1,7.5-7.4,9.8-13c2.3-5.6,3.5-12.1,3.5-19.5c0-7.4-1.2-13.8-3.5-19.5c-2.3-5.6-5.6-9.9-9.8-13c-4.2-3.1-9.1-4.6-14.6-4.6
				s-10.3,1.5-14.5,4.6c-4.2,3.1-7.4,7.4-9.7,13c-2.3,5.6-3.5,12.1-3.5,19.5c0,7.4,1.2,13.8,3.5,19.5s5.6,9.9,9.7,13
				c4.2,3.1,9,4.6,14.5,4.6S769,228,773.2,224.9z"/>
		</g>
	</g>
</g>
<g id="图层_2_00000123431267348476335810000000925339357917130651_">
</g>
<g id="图层_4">
</g>
<g>
	<line class="st3" x1="866.7" y1="346.9" x2="866.7" y2="306"/>
	<line class="st3" x1="889.7" y1="346.9" x2="889.7" y2="246.2"/>
	<line class="st3" x1="912.7" y1="346.9" x2="912.7" y2="198.5"/>
	<line class="st3" x1="935.7" y1="346.9" x2="935.7" y2="168.2"/>
	<line class="st3" x1="1028.3" y1="346.9" x2="1028.3" y2="306"/>
	<line class="st3" x1="1005.3" y1="346.9" x2="1005.3" y2="246.2"/>
	<line class="st3" x1="982.3" y1="346.9" x2="982.3" y2="198.5"/>
	<line class="st3" x1="959.3" y1="346.9" x2="959.3" y2="168.2"/>
</g>
<g>
	<line class="st3" x1="1050.7" y1="346.9" x2="1050.7" y2="319"/>
	<line class="st3" x1="1073.7" y1="346.9" x2="1073.7" y2="278.3"/>
	<line class="st3" x1="1096.7" y1="346.9" x2="1096.7" y2="245.8"/>
	<line class="st3" x1="1119.7" y1="346.9" x2="1119.7" y2="225.2"/>
	<line class="st3" x1="1212.3" y1="346.9" x2="1212.3" y2="319"/>
	<line class="st3" x1="1189.3" y1="346.9" x2="1189.3" y2="278.3"/>
	<line class="st3" x1="1166.3" y1="346.9" x2="1166.3" y2="245.8"/>
	<line class="st3" x1="1143.3" y1="346.9" x2="1143.3" y2="225.2"/>
</g>
<g>
	<line class="st4" x1="1234.7" y1="346.9" x2="1234.7" y2="337.3"/>
	<line class="st4" x1="1257.7" y1="346.9" x2="1257.7" y2="323.4"/>
	<line class="st4" x1="1280.7" y1="346.9" x2="1280.7" y2="312.2"/>
	<line class="st4" x1="1303.7" y1="346.9" x2="1303.7" y2="305.2"/>
	<line class="st4" x1="1396.3" y1="346.9" x2="1396.3" y2="337.3"/>
	<line class="st4" x1="1373.3" y1="346.9" x2="1373.3" y2="323.4"/>
	<line class="st4" x1="1350.3" y1="346.9" x2="1350.3" y2="312.2"/>
	<line class="st4" x1="1327.3" y1="346.9" x2="1327.3" y2="305.2"/>
</g>
<path class="st5" d="M891.7,60.2c0,8.4-6.8,15.1-15.1,15.1s-15.1-6.8-15.1-15.1V48.1c0-8.4,6.8-15.1,15.1-15.1s15.1,6.8,15.1,15.1
	V60.2z M867.5,48.1v12.1c0,5,4.1,9.1,9.1,9.1s9.1-4.1,9.1-9.1V48.1c0-5-4.1-9.1-9.1-9.1S867.5,43.1,867.5,48.1z"/>
<line class="st0" x1="914.8" y1="36.7" x2="914.8" y2="71.7"/>
<path class="st5" d="M971.1,48.1c0-8.4,6.8-15.1,15.1-15.1c8.3,0,15.1,6.8,15.1,15.1v12.1c0,8.4-6.8,15.1-15.1,15.1
	c-8.3,0-15.1-6.8-15.1-15.1V48.1z M986.2,39.1c-5,0-9.1,4.1-9.1,9.1v12.1c0,5,4.1,9.1,9.1,9.1s9.1-4.1,9.1-9.1V48.1
	C995.3,43.1,991.3,39.1,986.2,39.1z"/>
<line class="st0" x1="948.1" y1="36.7" x2="948.1" y2="71.7"/>
<path class="st5" d="M943.4,117.2c0,8.4-6.8,15.1-15.1,15.1s-15.1-6.8-15.1-15.1v-12.1c0-8.4,6.8-15.1,15.1-15.1s15.1,6.8,15.1,15.1
	V117.2z M919.2,105.1v12.1c0,5,4.1,9.1,9.1,9.1s9.1-4.1,9.1-9.1v-12.1c0-5-4.1-9.1-9.1-9.1C923.3,96.1,919.2,100.1,919.2,105.1z"/>
<line class="st0" x1="966.5" y1="93.7" x2="966.5" y2="128.7"/>
<path class="st5" d="M1022,117.2c0,8.4-6.8,15.1-15.1,15.1s-15.1-6.8-15.1-15.1v-12.1c0-8.4,6.8-15.1,15.1-15.1s15.1,6.8,15.1,15.1
	V117.2z M997.8,105.1v12.1c0,5,4.1,9.1,9.1,9.1s9.1-4.1,9.1-9.1v-12.1c0-5-4.1-9.1-9.1-9.1C1001.9,96.1,997.8,100.1,997.8,105.1z"/>
<line class="st0" x1="1045.1" y1="93.7" x2="1045.1" y2="128.7"/>
<path class="st5" d="M1128.1,48.1c0-8.4,6.8-15.1,15.1-15.1c8.4,0,15.1,6.8,15.1,15.1v12.1c0,8.4-6.8,15.1-15.1,15.1
	c-8.4,0-15.1-6.8-15.1-15.1V48.1z M1143.2,39.1c-5,0-9.1,4.1-9.1,9.1v12.1c0,5,4.1,9.1,9.1,9.1s9.1-4.1,9.1-9.1V48.1
	C1152.3,43.1,1148.2,39.1,1143.2,39.1z"/>
<line class="st0" x1="1105" y1="36.7" x2="1105" y2="71.7"/>
<path class="st5" d="M1048.5,48.1c0-8.4,6.8-15.1,15.1-15.1s15.1,6.8,15.1,15.1v12.1c0,8.4-6.8,15.1-15.1,15.1s-15.1-6.8-15.1-15.1
	V48.1z M1063.6,39.1c-5,0-9.1,4.1-9.1,9.1v12.1c0,5,4.1,9.1,9.1,9.1s9.1-4.1,9.1-9.1V48.1C1072.7,43.1,1068.6,39.1,1063.6,39.1z"/>
<line class="st0" x1="1025.4" y1="36.7" x2="1025.4" y2="71.7"/>
<path class="st5" d="M1204.9,48.1c0-8.4,6.8-15.1,15.1-15.1c8.4,0,15.1,6.8,15.1,15.1v12.1c0,8.4-6.8,15.1-15.1,15.1
	c-8.4,0-15.1-6.8-15.1-15.1V48.1z M1220.1,39.1c-5,0-9.1,4.1-9.1,9.1v12.1c0,5,4.1,9.1,9.1,9.1s9.1-4.1,9.1-9.1V48.1
	C1229.1,43.1,1225.1,39.1,1220.1,39.1z"/>
<line class="st0" x1="1181.9" y1="36.7" x2="1181.9" y2="71.7"/>
<path class="st5" d="M1285.8,60.2c0,8.4-6.8,15.1-15.1,15.1c-8.4,0-15.1-6.8-15.1-15.1V48.1c0-8.4,6.8-15.1,15.1-15.1
	c8.4,0,15.1,6.8,15.1,15.1V60.2z M1261.5,48.1v12.1c0,5,4.1,9.1,9.1,9.1s9.1-4.1,9.1-9.1V48.1c0-5-4.1-9.1-9.1-9.1
	S1261.5,43.1,1261.5,48.1z"/>
<line class="st0" x1="1308.8" y1="36.7" x2="1308.8" y2="71.7"/>
<path class="st5" d="M1100,117.2c0,8.4-6.8,15.1-15.1,15.1c-8.3,0-15.1-6.8-15.1-15.1v-12.1c0-8.4,6.8-15.1,15.1-15.1
	c8.3,0,15.1,6.8,15.1,15.1V117.2z M1075.8,105.1v12.1c0,5,4.1,9.1,9.1,9.1s9.1-4.1,9.1-9.1v-12.1c0-5-4.1-9.1-9.1-9.1
	S1075.8,100.1,1075.8,105.1z"/>
<line class="st0" x1="1123.1" y1="93.7" x2="1123.1" y2="128.7"/>
<path class="st5" d="M1179.4,105.1c0-8.4,6.8-15.1,15.1-15.1c8.4,0,15.1,6.8,15.1,15.1v12.1c0,8.4-6.8,15.1-15.1,15.1
	c-8.4,0-15.1-6.8-15.1-15.1V105.1z M1194.5,96.1c-5,0-9.1,4.1-9.1,9.1v12.1c0,5,4.1,9.1,9.1,9.1s9.1-4.1,9.1-9.1v-12.1
	C1203.6,100.1,1199.6,96.1,1194.5,96.1z"/>
<line class="st0" x1="1156.4" y1="93.7" x2="1156.4" y2="128.7"/>
<path class="st5" d="M1256.8,105.1c0-8.4,6.8-15.1,15.1-15.1c8.4,0,15.1,6.8,15.1,15.1v12.1c0,8.4-6.8,15.1-15.1,15.1
	c-8.4,0-15.1-6.8-15.1-15.1V105.1z M1271.9,96.1c-5,0-9.1,4.1-9.1,9.1v12.1c0,5,4.1,9.1,9.1,9.1s9.1-4.1,9.1-9.1v-12.1
	C1281,100.1,1276.9,96.1,1271.9,96.1z"/>
<line class="st0" x1="1233.7" y1="93.7" x2="1233.7" y2="128.7"/>
<path class="st5" d="M1034.1,162.1c0-8.4,6.8-15.1,15.1-15.1c8.4,0,15.1,6.8,15.1,15.1v12.1c0,8.4-6.8,15.1-15.1,15.1
	c-8.4,0-15.1-6.8-15.1-15.1V162.1z M1049.2,153.1c-5,0-9.1,4.1-9.1,9.1v12.1c0,5,4.1,9.1,9.1,9.1s9.1-4.1,9.1-9.1v-12.1
	C1058.3,157.1,1054.2,153.1,1049.2,153.1z"/>
<line class="st0" x1="1011.1" y1="150.7" x2="1011.1" y2="185.7"/>
<path class="st5" d="M1114.9,174.2c0,8.4-6.8,15.1-15.1,15.1c-8.4,0-15.1-6.8-15.1-15.1v-12.1c0-8.4,6.8-15.1,15.1-15.1
	c8.4,0,15.1,6.8,15.1,15.1V174.2z M1090.7,162.1v12.1c0,5,4.1,9.1,9.1,9.1s9.1-4.1,9.1-9.1v-12.1c0-5-4.1-9.1-9.1-9.1
	C1094.8,153.1,1090.7,157.1,1090.7,162.1z"/>
<line class="st0" x1="1138" y1="150.7" x2="1138" y2="185.7"/>
<path class="st5" d="M1191.6,174.2c0,8.4-6.8,15.1-15.1,15.1c-8.4,0-15.1-6.8-15.1-15.1v-12.1c0-8.4,6.8-15.1,15.1-15.1
	c8.4,0,15.1,6.8,15.1,15.1V174.2z M1167.4,162.1v12.1c0,5,4.1,9.1,9.1,9.1s9.1-4.1,9.1-9.1v-12.1c0-5-4.1-9.1-9.1-9.1
	C1171.4,153.1,1167.4,157.1,1167.4,162.1z"/>
<line class="st0" x1="1214.6" y1="150.7" x2="1214.6" y2="185.7"/>
<path class="st5" d="M1270.9,162.1c0-8.4,6.8-15.1,15.1-15.1s15.1,6.8,15.1,15.1v12.1c0,8.4-6.8,15.1-15.1,15.1s-15.1-6.8-15.1-15.1
	V162.1z M1286.1,153.1c-5,0-9.1,4.1-9.1,9.1v12.1c0,5,4.1,9.1,9.1,9.1s9.1-4.1,9.1-9.1v-12.1
	C1295.1,157.1,1291.1,153.1,1286.1,153.1z"/>
<line class="st0" x1="1247.9" y1="150.7" x2="1247.9" y2="185.7"/>
<path class="st5" d="M1225.8,219.1c0-8.4,6.8-15.1,15.1-15.1c8.4,0,15.1,6.8,15.1,15.1v12.1c0,8.4-6.8,15.1-15.1,15.1
	c-8.4,0-15.1-6.8-15.1-15.1V219.1z M1240.9,210.1c-5,0-9.1,4.1-9.1,9.1v12.1c0,5,4.1,9.1,9.1,9.1s9.1-4.1,9.1-9.1v-12.1
	C1250,214.1,1245.9,210.1,1240.9,210.1z"/>
<line class="st0" x1="1202.7" y1="207.7" x2="1202.7" y2="242.7"/>
<path class="st5" d="M1364,60.2c0,8.4-6.8,15.1-15.1,15.1c-8.3,0-15.1-6.8-15.1-15.1V48.1c0-8.4,6.8-15.1,15.1-15.1
	c8.3,0,15.1,6.8,15.1,15.1V60.2z M1339.8,48.1v12.1c0,5,4.1,9.1,9.1,9.1s9.1-4.1,9.1-9.1V48.1c0-5-4.1-9.1-9.1-9.1
	C1343.8,39.1,1339.8,43.1,1339.8,48.1z"/>
<path class="st5" d="M1278.5,185c0-96.6,78.4-175,175-175s175,78.4,175,175s-78.4,175-175,175S1278.5,281.6,1278.5,185z
	 M1453.5,206.9c-12.1,0-21.9-9.8-21.9-21.9c0-12.1,9.8-21.9,21.9-21.9c12.1,0,21.9,9.8,21.9,21.9
	C1475.4,197.1,1465.6,206.9,1453.5,206.9z M1387.9,185c0,36.2,29.4,65.6,65.6,65.6s65.6-29.4,65.6-65.6s-29.4-65.6-65.6-65.6
	S1387.9,148.8,1387.9,185z M1344.1,174.1c0-23.9,12-48.6,30.9-67.5s43.6-30.9,67.5-30.9c6,0,10.9-4.9,10.9-10.9s-4.9-10.9-10.9-10.9
	c-31,0-61,15.2-83.1,37.3s-37.3,52-37.3,83.1c0,6,4.9,10.9,10.9,10.9S1344.1,180.1,1344.1,174.1z"/>
<g>
	<path class="st5" d="M1447.5,346.9h-588c-3.3,0-6,2.7-6,6v1.1c0,3.3,2.7,6,6,6h588c3.3,0,6-2.7,6-6v-1.1
		C1453.5,349.6,1450.8,346.9,1447.5,346.9L1447.5,346.9z"/>
</g>
<g>
	<path class="st5" d="M1447.5,10h-588c-3.3,0-6,2.7-6,6v1.1c0,3.3,2.7,6,6,6h588c3.3,0,6-2.7,6-6V16
		C1453.5,12.7,1450.8,10,1447.5,10L1447.5,10z"/>
</g>
</svg>
