<svg width="339" height="339" viewBox="0 0 339 339" fill="none" xmlns="http://www.w3.org/2000/svg">
<g id="logo 1" clip-path="url(#clip0_0_1)">
<path id="Vector" d="M46.3 13.5H292.4C310.5 13.5 325.2 28.2 325.2 46.3V292.4C325.2 310.5 310.5 325.2 292.4 325.2H46.3C28.2 325.2 13.5 310.5 13.5 292.4V46.3C13.5 28.2 28.2 13.5 46.3 13.5Z" stroke="#57606E" stroke-width="27" stroke-linecap="round" stroke-linejoin="round"/>
<g id="headset-solid 1" clip-path="url(#clip1_0_1)">
<path id="Vector_2" d="M168.5 77.2812C117.558 77.2812 76.2812 118.558 76.2812 169.5V187.234C76.2812 193.131 71.5373 197.875 65.6406 197.875C59.7439 197.875 55 193.131 55 187.234V169.5C55 106.809 105.809 56 168.5 56C231.191 56 282 106.809 282 169.5V233.388C282 254.935 264.532 272.404 242.94 272.404L194.038 272.359C190.358 278.699 183.486 283 175.594 283H161.406C149.657 283 140.125 273.468 140.125 261.719C140.125 249.97 149.657 240.438 161.406 240.438H175.594C183.486 240.438 190.358 244.738 194.038 251.078L242.984 251.122C252.783 251.122 260.719 243.186 260.719 233.388V169.5C260.719 118.558 219.442 77.2812 168.5 77.2812ZM118.844 148.219H125.938C133.785 148.219 140.125 154.559 140.125 162.406V212.062C140.125 219.91 133.785 226.25 125.938 226.25H118.844C103.193 226.25 90.4688 213.526 90.4688 197.875V176.594C90.4688 160.943 103.193 148.219 118.844 148.219ZM218.156 148.219C233.807 148.219 246.531 160.943 246.531 176.594V197.875C246.531 213.526 233.807 226.25 218.156 226.25H211.062C203.215 226.25 196.875 219.91 196.875 212.062V162.406C196.875 154.559 203.215 148.219 211.062 148.219H218.156Z" fill="#57606E"/>
</g>
</g>
<defs>
<clipPath id="clip0_0_1">
<rect width="338.8" height="338.8" fill="white"/>
</clipPath>
<clipPath id="clip1_0_1">
<rect width="227" height="227" fill="white" transform="translate(55 56)"/>
</clipPath>
</defs>
</svg>
