<svg width="339" height="339" viewBox="0 0 339 339" fill="none" xmlns="http://www.w3.org/2000/svg">
<g id="logo 1" clip-path="url(#clip0_0_1)">
<path id="Vector" d="M54.9261 157.157H72.7516L73.904 157.154H89.8588L91.097 157.152H98.3628L98.5209 157.149H103.519L103.811 157.146H106.738L107.909 157.144H110.493L110.78 157.141H113.125L113.749 157.138H115.307L115.617 157.136H116.239L117.485 157.133H118.649L119.812 157.13H120.393L120.972 157.127L122.135 157.125H122.765L123.395 157.122L124.655 157.119H125.285L125.917 157.117L127.177 157.114H127.33L127.485 157.111H127.793L128.412 157.109L129.651 157.106H129.803L129.959 157.103H130.27L130.886 157.101L132.124 157.095H132.701L133.277 157.093L134.432 157.087H134.504L134.577 157.085H135.008L135.584 157.082L136.739 157.074H137.05L137.364 157.071L137.988 157.069L139.24 157.06H139.398L139.554 157.058L139.867 157.055L140.492 157.052L141.743 157.044L141.816 157.042H142.035L144.08 157.023H144.372L144.662 157.02L145.246 157.015L146.415 157.002H146.573L146.731 156.999L147.047 156.996L147.68 156.988L148.945 156.975L149.025 156.972H149.103L149.261 156.969L149.577 156.967L150.212 156.959L151.477 156.94H151.633L152.099 156.932L152.718 156.924L153.962 156.902H154.04L154.117 156.9L154.584 156.892L155.203 156.881L156.446 156.857H156.519L156.591 156.854L157.025 156.846L157.607 156.833L158.765 156.809L158.837 156.806H158.909L159.054 156.8L159.344 156.795L159.923 156.782L161.083 156.75H161.161L161.241 156.747L161.397 156.742L161.71 156.733L162.34 156.715L163.597 156.677L163.752 156.672L163.911 156.669L164.224 156.658L164.854 156.637L166.108 156.591L166.183 156.589L166.256 156.586L166.403 156.581L166.695 156.57L168.456 156.498L168.528 156.495L168.603 156.492L168.748 156.484L169.043 156.471L169.63 156.444L170.804 156.388L170.873 156.385L170.946 156.38L171.091 156.374L171.377 156.358L171.954 156.326L173.103 156.262L173.176 156.259L173.248 156.254L173.39 156.246L173.68 156.227L174.253 156.192L175.403 156.117L175.481 156.112L175.561 156.106L175.716 156.096L176.027 156.071L176.652 156.029L177.901 155.932L177.978 155.924L178.056 155.919L178.523 155.879L179.147 155.825L180.396 155.712L180.468 155.707L180.541 155.699L180.685 155.686L180.978 155.656L181.559 155.597L182.725 155.474L183.014 155.442L183.307 155.41L183.888 155.34L185.054 155.198L185.132 155.187L185.212 155.176L185.368 155.155L185.684 155.115L186.316 155.026L187.579 154.844L187.656 154.831L187.734 154.82L188.209 154.748L188.838 154.646L190.101 154.429L190.178 154.415L190.256 154.399L190.412 154.372L190.722 154.316L191.342 154.198L192.58 153.949L192.658 153.933L192.735 153.914L192.891 153.882L193.199 153.815L193.818 153.678L195.059 153.383L195.131 153.367L195.204 153.348L195.346 153.311L195.635 153.239L196.214 153.089L197.369 152.77L197.514 152.727L197.659 152.687L197.948 152.601L198.524 152.427L199.682 152.057L199.838 152.003L199.993 151.952L200.307 151.845L200.934 151.622L202.188 151.153L202.266 151.121L202.343 151.092L202.502 151.03L202.815 150.904L203.44 150.644L204.694 150.092L204.766 150.057L204.841 150.025L204.986 149.955L205.278 149.819L205.865 149.535L207.034 148.937L207.106 148.897L207.181 148.859L207.326 148.779L207.618 148.621L208.205 148.291L209.373 147.597L209.518 147.506L209.66 147.417L209.947 147.235L210.521 146.863L211.668 146.075L211.812 145.973L211.954 145.868L212.241 145.659L212.815 145.228L213.962 144.319L214.273 144.062L214.584 143.799L215.205 143.258L216.452 142.111L216.763 141.811L217.073 141.505L217.695 140.873L218.939 139.538L219.084 139.377L219.231 139.214L219.52 138.881L220.102 138.2L221.262 136.764L221.552 136.389L221.841 136.008L222.423 135.226L223.583 133.58L223.664 133.465L223.742 133.349L223.9 133.116L224.213 132.642L224.843 131.666L226.103 129.611L226.258 129.343L226.416 129.072L226.73 128.525L227.36 127.402L228.619 125.036L228.692 124.891L228.767 124.749L228.914 124.459L229.206 123.873L229.793 122.675L230.97 120.163L233.32 114.664L233.393 114.487L233.465 114.307L233.61 113.945L233.897 113.216L234.473 111.729L235.625 108.636L237.93 101.965L238.008 101.729L238.086 101.491L238.244 101.014L238.555 100.049L239.179 98.0897L240.431 94.0428L242.931 85.5173L247.597 68.9139L247.675 68.6379L247.755 68.3645L247.914 67.8124L248.227 66.7216L248.86 64.5721L250.125 60.4528L250.202 60.2035L250.283 59.957L250.441 59.4692L250.757 58.507L251.39 56.6604L251.467 56.438L251.548 56.2155L251.706 55.776L252.022 54.9237L252.652 53.3076L252.807 52.9324L252.963 52.5652L253.274 51.8576L253.352 51.6861L253.429 51.5173L253.585 51.1849L253.893 50.5524L253.971 50.3997L254.048 50.2496L254.204 49.9574L254.515 49.4027L254.592 49.2713L254.67 49.1427L254.826 48.8908L255.137 48.4244L255.212 48.3145L255.289 48.2046L255.445 47.9983L255.6 47.8053L255.756 47.6204L255.911 47.4488L256.067 47.2907L256.144 47.213L256.222 47.1406L256.377 47.0039L256.533 46.8807L256.608 46.8244L256.686 46.7681L256.763 46.7172L256.841 46.6689L256.997 46.5832L257.074 46.543L257.152 46.5054L257.23 46.4733L257.307 46.4438L257.385 46.417L257.463 46.3929L257.618 46.3554L257.691 46.342L257.763 46.3312L257.835 46.3232L257.908 46.3178L257.98 46.3152H258.052L258.125 46.3178L258.197 46.3232L258.342 46.3446L258.414 46.358L258.487 46.3741L258.559 46.3929L258.631 46.4143L258.776 46.4679L258.848 46.4974L258.921 46.5296L258.993 46.5644L259.138 46.6448L259.21 46.6877L259.355 46.7815L259.5 46.8887L259.644 47.0039L259.934 47.2666L260.006 47.339L260.079 47.414L260.223 47.5721L260.513 47.9179L260.658 48.1055L260.802 48.3038L261.092 48.7273L261.164 48.8398L261.236 48.9551L261.381 49.1909L261.671 49.6894L262.25 50.7963L262.327 50.9544L262.405 51.1179L262.563 51.4529L262.877 52.1471L263.504 53.6426L264.761 57.0222L264.916 57.4779L265.074 57.9388L265.388 58.8769L266.015 60.8227L267.269 64.9393L267.344 65.1859L267.417 65.4351L267.564 65.9336L267.856 66.9387L268.443 68.9756L269.615 73.1217L271.96 81.5105L276.553 97.1731L276.631 97.4224L276.711 97.6716L276.867 98.1675L277.178 99.1484L277.8 101.081L279.049 104.809L281.541 111.71L281.613 111.9L281.686 112.088L281.831 112.466L282.123 113.211L282.704 114.672L283.867 117.472L283.94 117.644L284.012 117.813L284.157 118.148L284.449 118.815L285.031 120.115L286.194 122.605L286.274 122.774L286.355 122.94L286.518 123.275L286.842 123.929L287.491 125.21L288.791 127.635L288.871 127.783L288.952 127.928L289.115 128.217L289.439 128.785L290.088 129.895L290.171 130.031L290.251 130.165L290.415 130.433L290.739 130.964L290.82 131.095L290.9 131.224L291.064 131.484L291.224 131.741L291.307 131.867L291.388 131.993" stroke="#57606E" stroke-width="25" stroke-miterlimit="3.25" stroke-linecap="round" stroke-linejoin="round"/>
<path id="Vector_2" d="M54.9261 206.321L55.0708 206.546L55.2155 206.776L55.5076 207.237L56.0866 208.189L57.247 210.183L57.3194 210.311L57.3918 210.443L57.5365 210.703L57.826 211.231L58.4075 212.311L59.568 214.578L59.6458 214.736L59.7262 214.897L59.8816 215.216L60.1979 215.867L60.825 217.199L62.0847 220L64.5986 226.151L64.6737 226.344L64.746 226.534L64.8934 226.92L65.1856 227.697L65.7752 229.284L66.9491 232.583L69.2969 239.672L73.904 255.198L73.9817 255.477L74.0595 255.753L74.2176 256.308L74.5285 257.42L75.1529 259.652L76.4019 264.128L76.4796 264.407L76.5573 264.688L76.7155 265.246L77.0263 266.358L77.6508 268.566L78.8998 272.892L78.9748 273.139L79.0472 273.385L79.1919 273.876L79.484 274.846L80.0656 276.749L81.2315 280.351L81.3065 280.565L81.3789 280.78L81.5236 281.203L81.8157 282.031L82.3973 283.615L82.4697 283.806L82.5447 283.996L82.6894 284.368L82.9816 285.092L83.5632 286.451L83.6436 286.625L83.7213 286.799L83.8794 287.134L84.1957 287.78L84.2734 287.936L84.3538 288.086L84.5119 288.383L84.8282 288.946L84.9059 289.077L84.9863 289.209L85.1444 289.463L85.458 289.935L85.5384 290.045L85.6161 290.155L85.7743 290.361L86.0905 290.742L86.1709 290.828L86.2486 290.913L86.4068 291.071L86.4845 291.146L86.5649 291.219L86.723 291.353L86.8008 291.414L86.8812 291.473L86.9589 291.53L87.0393 291.583L87.117 291.634L87.1974 291.68L87.3529 291.766L87.4333 291.803L87.511 291.835L87.5914 291.867L87.6691 291.894L87.7495 291.918L87.8272 291.94L87.9076 291.959L87.9854 291.972L88.0658 291.983L88.1435 291.991L88.2239 291.996L88.3016 291.999L88.3793 291.996L88.4597 291.991L88.5375 291.983L88.6179 291.972L88.6956 291.959L88.851 291.921L88.9288 291.897L89.0038 291.87L89.0815 291.841L89.1593 291.808L89.3147 291.733L89.3924 291.691L89.4702 291.645L89.5479 291.597L89.6256 291.546L89.7033 291.492L89.8588 291.374L89.9365 291.31L90.0142 291.243L90.167 291.101L90.2447 291.026L90.3224 290.948L90.4779 290.782L90.5556 290.696L90.6333 290.605L90.7888 290.417L91.097 290.005L91.1747 289.895L91.2524 289.782L91.4079 289.546L91.7188 289.048L91.7965 288.917L91.8742 288.783L92.0297 288.504L92.3379 287.922L92.4156 287.77L92.4933 287.614L92.6488 287.298L92.9597 286.636L93.5788 285.205L93.7235 284.851L93.8682 284.489L94.1577 283.749L94.7366 282.184L95.8917 278.783L98.2073 271.174L103.225 253.354L107.909 237.796L107.982 237.576L108.054 237.354L108.196 236.917L108.483 236.046L109.059 234.331L110.206 231.021L112.503 224.878L112.581 224.682L112.659 224.484L112.814 224.095L113.125 223.321L113.749 221.812L114.996 218.928L115.151 218.579L115.307 218.234L115.617 217.553L116.239 216.221L117.485 213.686L117.63 213.401L117.778 213.12L118.067 212.56L118.649 211.469L119.812 209.392L119.957 209.14L120.101 208.891L120.393 208.4L120.972 207.444L122.135 205.618L122.216 205.5L122.294 205.38L122.452 205.144L122.765 204.68L123.395 203.774L124.655 202.062L124.735 201.96L124.813 201.858L124.971 201.655L125.285 201.253L125.917 200.473L127.177 198.999L127.255 198.91L127.33 198.824L127.485 198.653L127.793 198.312L128.412 197.653L129.651 196.41L129.728 196.334L129.803 196.259L129.959 196.112L130.27 195.82L130.886 195.254L132.124 194.182L132.269 194.064L132.411 193.944L132.701 193.711L133.277 193.255L134.432 192.392L134.577 192.29L134.719 192.186L135.008 191.985L135.584 191.591L136.739 190.843L137.05 190.65L137.364 190.46L137.988 190.092L139.24 189.398L139.32 189.355L139.398 189.315L139.554 189.232L139.867 189.071L140.492 188.758L141.743 188.165L141.816 188.133L141.891 188.098L142.035 188.034L142.328 187.905L142.912 187.654L144.08 187.179L144.153 187.15L144.225 187.123L144.372 187.067L144.662 186.954L145.246 186.74L146.415 186.33L146.495 186.303L146.573 186.279L146.731 186.225L147.047 186.121L147.68 185.922L148.945 185.544L149.025 185.52L149.103 185.499L149.261 185.453L149.577 185.367L150.212 185.196L151.477 184.877L152.099 184.727L152.718 184.585L153.962 184.319L154.273 184.255L154.584 184.194L155.203 184.073L156.446 183.845L156.591 183.818L156.736 183.794L157.025 183.743L157.607 183.647L158.765 183.465L159.344 183.379L159.923 183.296L161.083 183.14L161.161 183.13L161.241 183.119L161.397 183.1L161.71 183.06L162.34 182.982L163.597 182.84L163.675 182.829L163.752 182.821L163.911 182.805L164.224 182.77L164.854 182.706L166.108 182.583L166.183 182.577L166.256 182.569L166.403 182.556L166.695 182.529L167.282 182.478L168.456 182.379L168.528 182.374L168.603 182.368L168.748 182.355L169.043 182.334L169.63 182.288L170.804 182.205L170.873 182.2L170.946 182.194L171.091 182.186L171.377 182.165L171.954 182.13L173.103 182.057L173.176 182.055L173.248 182.049L173.39 182.041L173.68 182.025L174.253 181.993L175.403 181.932L175.481 181.926L175.561 181.923L176.027 181.899L176.652 181.87L177.901 181.814L178.056 181.808L178.212 181.8L178.523 181.787L180.396 181.714L180.685 181.704L180.978 181.693L181.559 181.674L182.725 181.637L183.014 181.626L183.307 181.618L183.888 181.599L185.054 181.567L185.132 181.564H185.212L185.368 181.559L186.316 181.535L187.579 181.505L187.734 181.5L187.892 181.497L188.209 181.489L188.838 181.476L190.101 181.452L190.178 181.449H190.256L190.412 181.446L190.722 181.438L192.58 181.406H192.658L192.735 181.404L192.891 181.401L193.199 181.398L193.818 181.387L195.059 181.369H195.204L195.346 181.366L195.635 181.361L196.214 181.353L197.369 181.339H197.442L197.514 181.337H197.659L197.948 181.334L198.524 181.326L199.682 181.312H199.838L199.993 181.31L202.188 181.291L202.266 181.288H202.502L202.815 181.286L203.44 181.28L204.694 181.27H204.841L204.986 181.267L205.278 181.264L205.865 181.261L207.034 181.253H207.181L207.326 181.251H207.618L208.205 181.245L209.373 181.24H209.518L209.66 181.237H209.947L211.668 181.229L211.74 181.227H212.241L213.962 181.219H214.117L214.273 181.216H214.584L215.205 181.213L216.452 181.208H217.073L218.939 181.2H219.52L220.102 181.197L221.262 181.194H221.841L222.423 181.192L223.583 181.189H224.213L224.843 181.186L226.103 181.184H226.73L227.36 181.181H228.767L228.914 181.178H229.793L230.97 181.176H232.146L233.32 181.173H234.473L235.625 181.17H238.244L238.555 181.168H241.68L242.931 181.165H246.429L247.597 181.162H253.893L255.137 181.16H270.201L270.786 181.157H291.388" stroke="#57606E" stroke-width="25" stroke-miterlimit="3.25" stroke-linecap="round" stroke-linejoin="round"/>
<path id="Vector_3" d="M46.3 13.5H292.4C310.5 13.5 325.2 28.2 325.2 46.3V292.4C325.2 310.5 310.5 325.2 292.4 325.2H46.3C28.2 325.2 13.5 310.5 13.5 292.4V46.3C13.5 28.2 28.2 13.5 46.3 13.5Z" stroke="#57606E" stroke-width="27" stroke-linecap="round" stroke-linejoin="round"/>
</g>
</svg>
