<svg width="256" height="256" viewBox="0 0 256 256" fill="none" xmlns="http://www.w3.org/2000/svg">
<path d="M25 129.134L34.2744 129.628L41.4877 130.24L47.6706 131.009L52.823 131.889L57.9755 133.065L62.0974 134.28L66.2193 135.804L69.3107 137.192L72.4022 138.829L75.4937 140.754L78.5851 143.011L81.6766 145.649L84.768 148.716L87.8595 152.265L89.9203 154.922L91.981 157.826L94.0425 160.987L97.1339 166.216L100.225 172.008L103.317 178.278L110.53 193.334L112.591 197.099L114.652 200.238L115.683 201.497L116.713 202.511L117.744 203.256L118.774 203.713L119.804 203.873L120.835 203.729L121.865 203.286L122.896 202.556L123.927 201.556L124.957 200.309L125.987 198.844L128.048 195.377L130.109 191.397L134.231 182.743L138.353 174.159L141.445 168.184L144.536 162.753L147.628 157.904L150.719 153.632L153.811 149.903L156.902 146.672L159.994 143.89L163.085 141.505L166.176 139.469L169.267 137.735L172.359 136.264L176.481 134.648L180.603 133.358L184.725 132.331L189.877 131.34L196.06 130.473L203.274 129.782L211.517 129.273L222.852 128.871L230.066 128.723" stroke="#808080" stroke-opacity="0.5" stroke-width="25" stroke-linecap="square"/>
<path d="M25 128.15L39.4267 127.777L49.7315 127.242L56.9449 126.627L63.1278 125.856L68.2803 124.973L73.4326 123.793L77.5546 122.575L81.6766 121.047L84.768 119.655L87.8595 118.013L90.951 116.083L94.0425 113.82L97.1339 111.175L100.225 108.099L103.317 104.542L105.378 101.879L107.438 98.9684L109.5 95.8011L112.591 90.5624L115.683 84.7604L118.774 78.4844L125.987 63.4359L128.048 59.6833L130.109 56.564L131.14 55.3174L132.17 54.317L133.201 53.5864L134.231 53.1436L135.262 53L136.292 53.1592L137.322 53.6172L138.353 54.3622L139.384 55.3759L140.414 56.6344L142.475 59.7731L144.536 63.5388L147.628 69.8593L153.811 82.8207L156.902 88.7863L159.994 94.208L163.085 99.047L166.176 103.31L169.267 107.029L172.359 110.252L175.45 113.027L178.542 115.405L181.633 117.437L184.725 119.165L187.816 120.631L191.938 122.243L196.06 123.529L200.182 124.553L205.334 125.542L211.517 126.405L218.731 127.095L226.975 127.603L230.066 127.739" stroke="#808080" stroke-opacity="0.5" stroke-width="25" stroke-linecap="square"/>
<path d="M25 128.848L37.3658 129.275L46.6401 129.861L53.8535 130.583L60.0364 131.477L65.1888 132.488L69.3107 133.519L73.4326 134.794L77.5546 136.358L81.6766 138.259L84.768 139.935L87.8595 141.842L90.951 143.989L95.0725 147.211L100.225 151.671L104.347 155.248L106.408 156.845L108.469 158.157L110.53 159.018L111.561 159.217L112.591 159.225L113.621 159.015L114.652 158.555L115.683 157.821L116.713 156.788L117.744 155.439L118.774 153.762L119.804 151.754L120.835 149.422L121.865 146.784L123.927 140.706L125.987 133.843L131.14 116.167L133.201 110.089L134.231 107.45L135.262 105.119L136.292 103.111L137.322 101.434L138.353 100.085L139.384 99.0515L140.414 98.3176L141.445 97.8581L142.475 97.6472L143.505 97.6557L144.536 97.8549L146.597 98.716L148.658 100.028L151.749 102.489L162.054 111.321L165.146 113.626L168.237 115.693L171.329 117.522L174.42 119.123L178.542 120.936L182.664 122.423L186.786 123.632L191.938 124.823L197.091 125.728L203.274 126.526L210.487 127.17L219.761 127.692L230.066 128.025" stroke="#808080" stroke-width="25" stroke-linecap="square"/>
<rect x="17" y="17" width="222" height="222" rx="26" stroke="#808080" stroke-width="34"/>
</svg>
