<svg width="256" height="256" viewBox="0 0 256 256" fill="none" xmlns="http://www.w3.org/2000/svg">
<rect x="0" y="0" width="100%" height="100%" fill="none" />
<path d="M86 188C70.087 188 54.8258 181.679 43.5736 170.426C32.3214 159.174 26 143.913 26 128C26 112.087 32.3214 96.8258 43.5736 85.5736C54.8258 74.3214 70.087 68 86 68" stroke="#000000" stroke-width="30"/>
<path d="M169 68C176.879 68 184.681 69.5519 191.961 72.5672C199.241 75.5825 205.855 80.0021 211.426 85.5736C216.998 91.1451 221.417 97.7595 224.433 105.039C227.448 112.319 229 120.121 229 128C229 135.879 227.448 143.681 224.433 150.961C221.417 158.241 216.998 164.855 211.426 170.426C205.855 175.998 199.241 180.418 191.961 183.433C184.681 186.448 176.879 188 169 188" stroke="#000000" stroke-width="30"/>
<circle cx="15" cy="15" r="15" transform="matrix(-1 0 0 1 143 113)" fill="#000000"/>
</svg>
