<svg width="256" height="256" viewBox="0 0 256 256" fill="none" xmlns="http://www.w3.org/2000/svg">
<rect x="0" y="0" width="100%" height="100%" fill="none" />
<path d="M207.196 48.804C222.859 64.4675 233.526 84.424 237.848 106.15C242.169 127.876 239.952 150.395 231.474 170.861C222.997 191.326 208.642 208.818 190.224 221.125C171.805 233.431 150.151 240 128 240C105.848 240 84.1943 233.431 65.776 221.125C47.3577 208.818 33.0024 191.326 24.5254 170.86C16.0484 150.395 13.8305 127.876 18.1521 106.15C22.4737 84.4238 33.1407 64.4673 48.8042 48.8039" stroke="#000000" stroke-width="32"/>
<rect x="112" y="5" width="32" height="123" fill="#000000"/>
</svg>
