<svg width="256" height="256" viewBox="0 0 256 256" fill="none" xmlns="http://www.w3.org/2000/svg">
<rect x="0" y="0" width="100%" height="100%" fill="none" />
<path d="M163 9.02637C169.271 9.32912 174.065 12.4293 177.147 15.1689C180.433 18.0889 183.092 21.7339 185.257 25.2568C189.612 32.3447 193.641 41.746 197.394 51.9463C204.958 72.5095 212.572 99.6469 219.894 125.981C227.323 152.702 234.457 178.612 241.245 197.894C244.666 207.61 247.73 214.847 250.357 219.426C250.705 220.031 251.026 220.553 251.315 221H253V251H3V221H4.68457C4.9744 220.553 5.29532 220.031 5.64258 219.426C8.26961 214.847 11.3338 207.61 14.7549 197.894C21.5435 178.612 28.6773 152.702 36.1064 125.981C43.4284 99.6469 51.0418 72.5095 58.6064 51.9463C62.3589 41.746 66.3885 32.3447 70.7432 25.2568C72.9076 21.7339 75.567 18.0889 78.8525 15.1689C81.9353 12.4293 86.7289 9.32912 93 9.02637V9C93.1677 9 93.3343 9.00285 93.5 9.00684C93.6657 9.00285 93.8323 9 94 9V9.02637C100.271 9.32912 105.065 12.4293 108.147 15.1689C111.433 18.0889 114.092 21.7339 116.257 25.2568C120.46 32.0985 124.359 41.0961 128 50.8867C131.641 41.0961 135.54 32.0985 139.743 25.2568C141.908 21.7339 144.567 18.0889 147.853 15.1689C150.935 12.4293 155.729 9.32912 162 9.02637V9C162.168 9 162.334 9.00285 162.5 9.00684C162.666 9.00285 162.832 9 163 9V9.02637ZM162.5 46.127C160.434 50.3328 158.177 55.7395 155.762 62.3037C151.779 73.1311 147.725 86.0845 143.616 100.108C146.065 108.646 148.496 117.357 150.894 125.981C158.323 152.702 165.457 178.612 172.245 197.894C175.666 207.61 178.73 214.847 181.357 219.426C181.705 220.031 182.026 220.553 182.315 221H217.938C216.231 216.88 214.567 212.454 212.948 207.856C205.742 187.388 198.297 160.298 190.99 134.019C183.576 107.353 176.297 81.4904 169.238 62.3037C166.823 55.7395 164.566 50.3328 162.5 46.127ZM93.5 46.127C91.4341 50.3328 89.1765 55.7395 86.7617 62.3037C79.7035 81.4904 72.4237 107.353 65.0098 134.019C57.7031 160.298 50.2582 187.388 43.0518 207.856C41.433 212.454 39.7691 216.88 38.0615 221H73.6846C73.9744 220.553 74.2953 220.031 74.6426 219.426C77.2696 214.847 80.3338 207.61 83.7549 197.894C90.5435 178.612 97.6773 152.702 105.106 125.981C107.504 117.357 109.934 108.646 112.383 100.108C108.274 86.0846 104.221 73.131 100.238 62.3037C97.8235 55.7395 95.5659 50.3328 93.5 46.127ZM128 155.575C122.654 174.598 117.29 192.977 112.052 207.856C110.433 212.454 108.769 216.88 107.062 221H148.938C147.231 216.88 145.567 212.454 143.948 207.856C138.71 192.977 133.346 174.598 128 155.575Z" fill="#000000"/>
</svg>
