<svg width="256" height="256" viewBox="0 0 256 256" fill="none" xmlns="http://www.w3.org/2000/svg">
<rect x="0" y="0" width="100%" height="100%" fill="none" />
<path d="M253 251H3V221H253V251ZM128.235 55.7803C154.875 55.7803 172.155 69.4602 180.075 85.6602L157.575 100.96C150.915 89.62 140.115 82.96 127.875 82.96C115.635 82.9601 105.915 89.0801 105.915 97.54C105.915 106.54 113.295 110.14 133.995 115.72C153.975 120.94 181.336 128.14 181.336 158.2C181.336 184.3 158.655 201.22 126.436 201.22C99.6156 201.22 80.1751 188.44 70.9951 169.36L94.5752 153.52C101.955 167.919 113.115 174.04 126.615 174.04C141.195 174.04 150.555 168.28 150.556 159.82C150.556 151 144.435 146.86 122.655 140.92C102.855 135.52 75.1357 128.14 75.1357 98.2598C75.1359 73.4199 98.3555 55.7803 128.235 55.7803ZM253 35H3V5H253V35Z" fill="#000000"/>
</svg>
