<svg width="256" height="256" viewBox="0 0 256 256" fill="none" xmlns="http://www.w3.org/2000/svg">
<rect x="0" y="0" width="100%" height="100%" fill="none" />
<path d="M208.263 9C211.771 9 215.116 9.65802 218.296 10.9746C221.476 12.2913 224.272 14.2671 226.685 16.9004L245.105 35.333C247.737 37.7469 249.711 40.5456 251.026 43.7275C252.342 46.9093 253 50.2557 253 53.7666C253 57.0582 252.342 60.35 251.026 63.6416C249.711 66.9332 247.737 69.896 245.105 72.5293L72.0791 246H16.1582V190.042L189.513 16.9004C192.144 14.2671 195.105 12.2913 198.395 10.9746C201.684 9.658 204.973 9.00006 208.263 9ZM190.5 164.696C197.517 168.866 203.11 173.803 207.276 179.509C211.443 185.214 213.526 192.017 213.526 199.917C213.526 214.4 206.618 225.702 192.803 233.821C178.987 241.941 163.965 246 147.737 246C144.009 246 140.884 244.738 138.362 242.215C135.84 239.691 134.579 236.564 134.579 232.833C134.579 229.103 135.84 225.976 138.362 223.452C140.884 220.929 144.009 219.667 147.737 219.667C158.044 219.667 167.2 217.637 175.204 213.577C183.208 209.518 187.211 204.964 187.211 199.917C187.211 196.845 185.785 193.992 182.935 191.358C180.084 188.725 176.136 186.311 171.092 184.116L190.5 164.696ZM42.4736 201.233V219.667H60.8945L190.171 90.6338L171.421 71.8711L42.4736 201.233ZM55.6318 9C71.4211 9.00004 84.14 12.5664 93.7891 19.6982C103.438 26.8302 108.263 36.4306 108.263 48.5C108.263 57.0583 105.083 64.7392 98.7236 71.542C92.364 78.3447 79.5351 85.9152 60.2373 94.2539C47.5182 99.7399 39.1848 103.8 35.2373 106.434C31.2901 109.067 29.3156 111.7 29.3154 114.333C29.3154 116.308 30.5767 118.228 33.0986 120.094C35.6206 121.959 39.075 123.77 43.4609 125.525L23.7236 145.275C17.364 141.545 12.3199 137.21 8.5918 132.272C4.86395 127.335 3 121.355 3 114.333C3.00008 105.116 6.3991 97.381 13.1973 91.127C19.9955 84.8728 32.1671 77.9052 49.7109 70.2246C63.5263 63.8609 72.3527 59.4172 76.1904 56.8936C80.0282 54.3699 81.9473 51.5722 81.9473 48.5C81.9473 44.9889 79.8094 41.9165 75.5332 39.2832C71.2569 36.6499 64.6229 35.333 55.6318 35.333C50.1494 35.333 45.5435 35.9919 41.8154 37.3086C38.0875 38.6253 34.6882 40.8195 31.6182 43.8916C29.206 46.3053 26.2458 47.732 22.7373 48.1709C19.2285 48.6098 16.0481 47.6219 13.1973 45.208C10.3466 43.0137 8.70134 40.1613 8.2627 36.6504C7.82411 33.1394 8.81148 29.9572 11.2236 27.1045C15.3903 22.0573 21.3663 17.7777 29.1514 14.2666C36.9364 10.7555 45.7634 9 55.6318 9Z" fill="#000000"/>
</svg>
