<svg width="256" height="197" viewBox="0 0 256 197" fill="none" xmlns="http://www.w3.org/2000/svg">
<rect x="0" y="0" width="100%" height="100%" fill="none" />
<path d="M128 2C139.331 2 146.601 9.79087 150.56 15.6406C154.773 21.8683 158.012 29.8523 160.66 37.9746C166.008 54.3734 170.327 75.827 174.345 96.082C178.476 116.91 182.299 136.528 186.698 151.018C188.042 155.442 189.326 158.986 190.514 161.718C190.726 161.284 190.95 160.813 191.182 160.301C194.463 153.041 197.122 142.855 200.189 130.826C203.042 119.641 206.307 106.606 210.84 96.4658C214.781 87.6489 223.176 73.0674 240 73.0674L240.387 73.0723C248.492 73.2774 255 79.9124 255 88.0674C255 95.8469 249.077 102.242 241.495 102.992C240.914 103.654 239.778 105.241 238.228 108.709C234.971 115.993 232.332 126.192 229.259 138.24C226.401 149.445 223.113 162.492 218.519 172.657C214.487 181.577 206.002 196 189.19 196C177.528 196 170.582 187.302 167.206 181.847C163.391 175.682 160.437 167.784 157.992 159.732C153.055 143.473 148.919 122.089 144.918 101.918C140.803 81.1732 136.818 61.6265 132.139 47.2754C130.684 42.8158 129.289 39.2732 128 36.5684C126.711 39.2732 125.316 42.816 123.862 47.2754C119.183 61.6266 115.197 81.1731 111.082 101.918C107.081 122.09 102.945 143.474 98.0078 159.733C95.5633 167.784 92.6096 175.683 88.7949 181.847C85.4191 187.302 78.472 196 66.8096 196C49.9984 196 41.5133 181.578 37.4814 172.657C32.8869 162.492 29.5989 149.445 26.7412 138.24C23.6685 126.192 21.0287 115.993 17.7725 108.709C16.2223 105.241 15.0864 103.654 14.5049 102.992C6.92275 102.242 1.00021 95.8469 1 88.0674C1 79.7831 7.71573 73.0674 16 73.0674C32.8237 73.0674 41.2187 87.649 45.1602 96.4658C49.6933 106.606 52.9578 119.641 55.8105 130.826C58.8783 142.855 61.5371 153.041 64.8184 160.301C65.05 160.813 65.2725 161.285 65.4854 161.719C66.6735 158.987 67.9582 155.442 69.3018 151.017C73.7012 136.527 77.5242 116.91 81.6553 96.082C85.6727 75.827 89.9925 54.3733 95.3398 37.9746C97.9884 29.8523 101.227 21.8683 105.44 15.6406C109.398 9.79098 116.669 2 128 2Z" fill="#000000"/>
</svg>
