<svg width="256" height="256" viewBox="0 0 256 256" fill="none" xmlns="http://www.w3.org/2000/svg">
<rect x="43" y="204" width="170" height="17" fill="#000000"/>
<rect x="43" y="35" width="170" height="17" fill="#000000"/>
<rect x="88" y="52" width="80" height="49" fill="#000000"/>
<path d="M132.243 102.757C129.899 100.414 126.101 100.414 123.757 102.757L85.5736 140.941C83.2304 143.284 83.2304 147.083 85.5736 149.426C87.9167 151.77 91.7157 151.77 94.0589 149.426L128 115.485L161.941 149.426C164.284 151.77 168.083 151.77 170.426 149.426C172.77 147.083 172.77 143.284 170.426 140.941L132.243 102.757ZM134 207V107H122V207H134Z" fill="#000000"/>
</svg>
