<svg width="256" height="256" viewBox="0 0 256 256" fill="none" xmlns="http://www.w3.org/2000/svg">
<rect x="43" y="204" width="170" height="17" fill="#000000"/>
<rect x="43" y="35" width="170" height="17" fill="#000000"/>
<rect x="95" y="52" width="65" height="34" fill="#000000"/>
<path d="M132.243 81.7574C129.899 79.4142 126.101 79.4142 123.757 81.7574L85.5736 119.941C83.2304 122.284 83.2304 126.083 85.5736 128.426C87.9167 130.77 91.7157 130.77 94.0589 128.426L128 94.4853L161.941 128.426C164.284 130.77 168.083 130.77 170.426 128.426C172.77 126.083 172.77 122.284 170.426 119.941L132.243 81.7574ZM134 207V86H122V207H134Z" fill="#000000"/>
</svg>
