<svg width="256" height="256" viewBox="0 0 256 256" fill="none" xmlns="http://www.w3.org/2000/svg">
<path fill-rule="evenodd" clip-rule="evenodd" d="M109.448 213.222L97.9149 244.896C97.6359 245.665 97.2081 246.371 96.6559 246.975C96.1037 247.579 95.438 248.068 94.6967 248.414C93.9555 248.76 93.1532 248.957 92.3358 248.994C91.5184 249.03 90.7018 248.905 89.9326 248.626L78.2122 244.364C77.4435 244.083 76.7376 243.654 76.1348 243.101C75.532 242.548 75.0441 241.882 74.699 241.14C74.3539 240.399 74.1583 239.596 74.1235 238.779C74.0887 237.962 74.2152 237.146 74.496 236.378L86.0762 204.577C58.6326 189.685 40 160.629 40 127.222C40 78.6435 79.3991 39.2629 128 39.2629C134.039 39.2629 139.935 39.8701 145.631 41.0284L156.528 11.1037C156.807 10.3349 157.234 9.6285 157.787 9.02493C158.339 8.42136 159.004 7.93242 159.746 7.58604C160.487 7.23967 161.289 7.04263 162.107 7.00618C162.924 6.96974 163.741 7.09461 164.51 7.37365L176.23 11.6361C176.999 11.9165 177.705 12.3455 178.308 12.8987C178.911 13.4518 179.398 14.1182 179.744 14.8598C180.089 15.6015 180.284 16.4038 180.319 17.221C180.354 18.0382 180.227 18.8542 179.946 19.6225L169.094 49.4226C196.992 64.1747 216 93.4797 216 127.222C216 175.8 176.601 215.18 128 215.18C121.636 215.18 115.429 214.505 109.448 213.222ZM117.505 191.095C120.721 191.585 123.969 191.83 127.221 191.828C162.49 191.828 191.08 163.252 191.08 128C191.08 104.874 178.775 84.6216 160.354 73.4252L117.505 191.095ZM94.0881 182.575L136.936 64.9048C133.721 64.4155 130.473 64.1703 127.221 64.1716C91.9527 64.1716 63.3628 92.748 63.3628 128C63.3628 151.126 75.6673 171.378 94.0881 182.575Z" fill="#000000"/>
</svg>
