<svg width="256" height="256" viewBox="0 0 256 256" fill="none" xmlns="http://www.w3.org/2000/svg">
    <rect x="0" y="0" width="100%" height="100%" fill="none" />
    <path d="M95.0667 221.2H54C48.4996 221.2 43.7911 219.242 39.8747 215.325C35.9582 211.409 34 206.7 34 201.2V127.6C34 114.622 36.4667 102.467 41.4 91.1333C46.3333 79.8 53.0222 69.9111 61.4667 61.4667C69.9111 53.0222 79.8 46.3333 91.1333 41.4C102.467 36.4667 114.622 34 127.6 34C140.578 34 152.733 36.4667 164.067 41.4C175.4 46.3333 185.289 53.0222 193.733 61.4667C202.178 69.9111 208.867 79.8 213.8 91.1333C218.733 102.467 221.2 114.622 221.2 127.6V201.2C221.2 206.7 219.242 211.409 215.325 215.325C211.409 219.242 206.7 221.2 201.2 221.2H160.133V139.067H201.2V127.6C201.2 107.156 194.044 89.7778 179.733 75.4667C165.422 61.1556 148.044 54 127.6 54C107.156 54 89.7778 61.1556 75.4667 75.4667C61.1556 89.7778 54 107.156 54 127.6V139.067H95.0667V221.2ZM75.0667 159.067H54V201.2H75.0667V159.067ZM180.133 159.067V201.2H201.2V159.067H180.133Z" fill="#000000"/>
</svg>
