<svg width="256" height="256" viewBox="0 0 256 256" fill="none" xmlns="http://www.w3.org/2000/svg">
<rect x="0" y="0" width="100%" height="100%" fill="none" />
<path d="M146.497 110.503C156.287 120.292 162.954 132.765 165.655 146.344C168.356 159.922 166.97 173.997 161.672 186.788C156.373 199.579 147.401 210.511 135.89 218.203C124.378 225.895 110.845 230 96.9999 230C83.1552 230 69.6214 225.895 58.11 218.203C46.5986 210.511 37.6265 199.579 32.3284 186.788C27.0303 173.997 25.6441 159.922 28.3451 146.344C31.0461 132.765 37.7129 120.292 47.5026 110.502" stroke="#000000" stroke-width="30"/>
<path d="M108.503 144.497C98.7128 134.708 92.046 122.235 89.345 108.656C86.6441 95.0776 88.0303 81.003 93.3284 68.2121C98.6266 55.4213 107.599 44.4888 119.11 36.7971C130.622 29.1054 144.155 25 158 25C171.845 25 185.379 29.1055 196.89 36.7972C208.401 44.4889 217.374 55.4214 222.672 68.2123C227.97 81.0031 229.356 95.0778 226.655 108.656C223.954 122.235 217.287 134.708 207.497 144.498" stroke="#000000" stroke-width="30"/>
</svg>
