<svg width="256" height="256" viewBox="0 0 256 256" fill="none" xmlns="http://www.w3.org/2000/svg">
<rect x="0" y="0" width="100%" height="100%" fill="none" />
<path d="M253 251H3V221H253V251ZM235.94 93.5625L221.536 107.437L195.521 82.377L195.52 159V173.623L221.535 148.563L235.939 162.438L185.523 211L185.47 210.949L185.416 211L135 162.438L149.404 148.563L175.52 173.719V97H175.521V82.2812L149.405 107.437L135.001 93.5625L185.417 45L185.471 45.0508L185.524 45L235.94 93.5625ZM68.0732 130.04H68.9131L104.893 74.04H125.893V183.24H103.213V116.6H102.373L77.1729 155.8H59.9531L34.6133 117.02H33.7725V183.24H11.0928V74.04H32.0928L68.0732 130.04ZM253 35H3V5H253V35Z" fill="#000000"/>
</svg>
