<svg width="256" height="256" viewBox="0 0 256 256" fill="none" xmlns="http://www.w3.org/2000/svg">
<rect x="0" y="0" width="100%" height="100%" fill="none" />
<path d="M128 0C155.839 0 181.601 8.88853 202.605 23.9805L213.587 13L241.871 41.2842L231.067 52.0869C246.737 73.326 256 99.5809 256 128C256 198.692 198.692 256 128 256C99.5809 256 73.326 246.737 52.0869 231.067L41.2842 241.871L13 213.587L23.9805 202.605C8.88853 181.601 0 155.839 0 128C0 57.3076 57.3076 0 128 0ZM73.6182 209.536C89.1782 219.935 107.88 226 128 226C182.124 226 226 182.124 226 128C226 107.88 219.935 89.1782 209.536 73.6182L73.6182 209.536ZM128 30C73.8761 30 30 73.8761 30 128C30 147.535 35.7168 165.735 45.5674 181.019L181.019 45.5674C165.735 35.7168 147.535 30 128 30Z" fill="#000000"/>
</svg>
