<svg width="24" height="24" viewBox="0 0 24 24" fill="none" xmlns="http://www.w3.org/2000/svg">
    <rect x="0" y="0" width="100%" height="100%" fill="none" />
    <path d="M13 15.75V14.25H17V15.75H13ZM14.5 21V19.75H13V18.25H14.5V17H16V21H14.5ZM17 19.75V18.25H21V19.75H17ZM18 17V13H19.5V14.25H21V15.75H19.5V17H18ZM20.775 10H18.7C18.2667 8.53333 17.4417 7.33333 16.225 6.4C15.0083 5.46667 13.6 5 12 5C10.05 5 8.39583 5.67917 7.0375 7.0375C5.67917 8.39583 5 10.05 5 12C5 13.2 5.27083 14.3 5.8125 15.3C6.35417 16.3 7.08333 17.1167 8 17.75V15H10V21H4V19H6.35C5.31667 18.1667 4.5 17.1458 3.9 15.9375C3.3 14.7292 3 13.4167 3 12C3 10.75 3.2375 9.57917 3.7125 8.4875C4.1875 7.39583 4.82917 6.44583 5.6375 5.6375C6.44583 4.82917 7.39583 4.1875 8.4875 3.7125C9.57917 3.2375 10.75 3 12 3C14.15 3 16.0375 3.6625 17.6625 4.9875C19.2875 6.3125 20.325 7.98333 20.775 10Z" fill="#000000"/>
</svg>
