<svg width="256" height="256" viewBox="0 0 256 256" fill="none" xmlns="http://www.w3.org/2000/svg">
<rect x="0" y="0" width="100%" height="100%" fill="none" />
<path d="M142.111 180.917V159.75H198.556V180.917H142.111ZM163.278 255V237.361H142.111V216.194H163.278V198.556H184.444V255H163.278ZM198.556 237.361V216.194H255V237.361H198.556ZM212.667 198.556V142.111H233.833V159.75H255V180.917H233.833V198.556H212.667ZM251.825 99.7778H222.544C216.43 79.0814 204.788 62.1481 187.619 48.9778C170.45 35.8075 150.578 29.2222 128 29.2222C100.483 29.2222 77.1412 38.8061 57.9736 57.9736C38.8061 77.1412 29.2222 100.483 29.2222 128C29.2222 144.933 33.0439 160.456 40.6875 174.567C48.3311 188.678 58.6203 200.202 71.5556 209.139V170.333H99.7778V255H15.1111V226.778H48.2722C33.6908 215.019 22.1667 200.613 13.7 183.562C5.23333 166.512 1 147.991 1 128C1 110.361 4.35139 93.8394 11.0542 78.4347C17.7569 63.03 26.8116 49.6245 38.2181 38.2181C49.6245 26.8116 63.03 17.7569 78.4347 11.0542C93.8394 4.35139 110.361 1 128 1C158.339 1 184.974 10.3486 207.904 29.0458C230.835 47.7431 245.475 71.3203 251.825 99.7778Z" fill="#000000" stroke="#000000"/>
</svg>
