<svg width="256" height="256" viewBox="0 0 256 256" fill="none" xmlns="http://www.w3.org/2000/svg">
<rect x="0" y="0" width="100%" height="100%" fill="none" />
<path d="M141.889 180.083V159.25H197.444V180.083H141.889ZM162.722 253V235.639H141.889V214.806H162.722V197.444H183.556V253H162.722ZM197.444 235.639V214.806H253V235.639H197.444ZM211.333 197.444V141.889H232.167V159.25H253V180.083H232.167V197.444H211.333ZM249.875 100.222H221.056C215.038 79.8518 203.579 63.1851 186.681 50.2222C169.782 37.2593 150.222 30.7778 128 30.7778C100.917 30.7778 77.9421 40.2107 59.0764 59.0764C40.2107 77.9421 30.7778 100.917 30.7778 128C30.7778 144.667 34.5393 159.944 42.0625 173.833C49.5857 187.722 59.7129 199.065 72.4444 207.861V169.667H100.222V253H16.8889V225.222H49.5278C35.176 213.649 23.8333 199.469 15.5 182.688C7.16667 165.906 3 147.676 3 128C3 110.639 6.29861 94.3774 12.8958 79.2153C19.4931 64.0532 28.4051 50.8587 39.6319 39.6319C50.8587 28.4051 64.0532 19.4931 79.2153 12.8958C94.3774 6.29861 110.639 3 128 3C157.861 3 184.076 12.2014 206.646 30.6042C229.215 49.0069 243.625 72.2129 249.875 100.222Z" fill="#000000" stroke="#000000"/>
</svg>
