<svg width="24" height="24" viewBox="0 0 24 24" fill="none" xmlns="http://www.w3.org/2000/svg">
    <rect x="0" y="0" width="100%" height="100%" fill="none" />
    <path d="M21 7V19C21 19.55 20.8042 20.0208 20.4125 20.4125C20.0208 20.8042 19.55 21 19 21H5C4.45 21 3.97917 20.8042 3.5875 20.4125C3.19583 20.0208 3 19.55 3 19V5C3 4.45 3.19583 3.97917 3.5875 3.5875C3.97917 3.19583 4.45 3 5 3H17L21 7ZM19 7.85L16.15 5H5V19H19V7.85ZM12 18C12.8333 18 13.5417 17.7083 14.125 17.125C14.7083 16.5417 15 15.8333 15 15C15 14.1667 14.7083 13.4583 14.125 12.875C13.5417 12.2917 12.8333 12 12 12C11.1667 12 10.4583 12.2917 9.875 12.875C9.29167 13.4583 9 14.1667 9 15C9 15.8333 9.29167 16.5417 9.875 17.125C10.4583 17.7083 11.1667 18 12 18ZM6 10H15V6H6V10ZM5 7.85V19V5V7.85Z" fill="#000000"/>
</svg>
