<svg width="256" height="256" viewBox="0 0 256 256" fill="none" xmlns="http://www.w3.org/2000/svg">
<rect x="0" y="0" width="100%" height="100%" fill="none" />
<path d="M255 57.4444V226.778C255 234.539 252.237 241.182 246.71 246.71C241.182 252.237 234.539 255 226.778 255H29.2222C21.4611 255 14.8172 252.237 9.29028 246.71C3.76338 241.182 1 234.539 1 226.778V29.2222C1 21.4611 3.76338 14.8172 9.29028 9.29028C14.8172 3.76338 21.4611 1 29.2222 1H198.556L255 57.4444ZM226.778 69.4389L186.561 29.2222H29.2222V226.778H226.778V69.4389ZM128 212.667C139.759 212.667 149.755 208.55 157.986 200.319C166.217 192.088 170.333 182.092 170.333 170.333C170.333 158.575 166.217 148.578 157.986 140.347C149.755 132.116 139.759 128 128 128C116.241 128 106.245 132.116 98.0139 140.347C89.7825 148.578 85.6667 158.575 85.6667 170.333C85.6667 182.092 89.7825 192.088 98.0139 200.319C106.245 208.55 116.241 212.667 128 212.667ZM43.3333 99.7778H170.333V43.3333H43.3333V99.7778ZM29.2222 69.4389V226.778V29.2222V69.4389Z" fill="#000000"/>
<path d="M29.2222 29.2222H186.561L226.778 69.4389V226.778H29.2222M29.2222 29.2222V226.778M29.2222 29.2222V69.4389V226.778M255 57.4444V226.778C255 234.539 252.237 241.182 246.71 246.71C241.182 252.237 234.539 255 226.778 255H29.2222C21.4611 255 14.8172 252.237 9.29028 246.71C3.76338 241.182 1 234.539 1 226.778V29.2222C1 21.4611 3.76338 14.8172 9.29028 9.29028C14.8172 3.76338 21.4611 1 29.2222 1H198.556L255 57.4444ZM128 212.667C139.759 212.667 149.755 208.55 157.986 200.319C166.217 192.088 170.333 182.092 170.333 170.333C170.333 158.575 166.217 148.578 157.986 140.347C149.755 132.116 139.759 128 128 128C116.241 128 106.245 132.116 98.0139 140.347C89.7825 148.578 85.6667 158.575 85.6667 170.333C85.6667 182.092 89.7825 192.088 98.0139 200.319C106.245 208.55 116.241 212.667 128 212.667ZM43.3333 99.7778H170.333V43.3333H43.3333V99.7778Z" stroke="#000000"/>
</svg>
