<svg width="256" height="256" viewBox="0 0 256 256" fill="none" xmlns="http://www.w3.org/2000/svg">
<rect x="0" y="0" width="100%" height="100%" fill="none" />
<path d="M253 58.5556V225.222C253 232.861 250.281 239.4 244.84 244.84C239.4 250.281 232.861 253 225.222 253H30.7778C23.1389 253 16.5996 250.281 11.1597 244.84C5.71986 239.4 3 232.861 3 225.222V30.7778C3 23.1389 5.71986 16.5996 11.1597 11.1597C16.5996 5.71986 23.1389 3 30.7778 3H197.444L253 58.5556ZM225.222 70.3611L185.639 30.7778H30.7778V225.222H225.222V70.3611ZM128 211.333C139.574 211.333 149.413 207.282 157.514 199.181C165.615 191.079 169.667 181.24 169.667 169.667C169.667 158.093 165.615 148.254 157.514 140.153C149.413 132.051 139.574 128 128 128C116.426 128 106.588 132.051 98.4861 140.153C90.3843 148.254 86.3333 158.093 86.3333 169.667C86.3333 181.24 90.3843 191.079 98.4861 199.181C106.588 207.282 116.426 211.333 128 211.333ZM44.6667 100.222H169.667V44.6667H44.6667V100.222ZM30.7778 70.3611V225.222V30.7778V70.3611Z" fill="#000000"/>
<path d="M30.7778 30.7778H185.639L225.222 70.3611V225.222H30.7778M30.7778 30.7778V225.222M30.7778 30.7778V70.3611V225.222M253 58.5556V225.222C253 232.861 250.281 239.4 244.84 244.84C239.4 250.281 232.861 253 225.222 253H30.7778C23.1389 253 16.5996 250.281 11.1597 244.84C5.71986 239.4 3 232.861 3 225.222V30.7778C3 23.1389 5.71986 16.5996 11.1597 11.1597C16.5996 5.71986 23.1389 3 30.7778 3H197.444L253 58.5556ZM128 211.333C139.574 211.333 149.413 207.282 157.514 199.181C165.615 191.079 169.667 181.24 169.667 169.667C169.667 158.093 165.615 148.254 157.514 140.153C149.413 132.051 139.574 128 128 128C116.426 128 106.588 132.051 98.4861 140.153C90.3843 148.254 86.3333 158.093 86.3333 169.667C86.3333 181.24 90.3843 191.079 98.4861 199.181C106.588 207.282 116.426 211.333 128 211.333ZM44.6667 100.222H169.667V44.6667H44.6667V100.222Z" stroke="#000000"/>
</svg>
