<svg width="256" height="256" viewBox="0 0 256 256" fill="none" xmlns="http://www.w3.org/2000/svg">
<rect x="0" y="0" width="100%" height="100%" fill="none" />
<path d="M128 3C161.152 3 192.947 16.1693 216.389 39.6113C239.831 63.0534 253 94.848 253 128V231C253 239.284 246.284 246 238 246H176C167.716 246 161 239.284 161 231V167C161 158.716 167.716 152 176 152H223V128C223 102.804 212.991 78.6411 195.175 60.8252C177.359 43.0092 153.196 33 128 33C102.804 33 78.6411 43.0092 60.8252 60.8252C43.0092 78.6411 33 102.804 33 128V152H80C88.2843 152 95 158.716 95 167V231C95 239.284 88.2843 246 80 246H18C9.71573 246 3 239.284 3 231V128C3 94.8479 16.1693 63.0534 39.6113 39.6113C63.0534 16.1693 94.8479 3 128 3ZM33 216H65V182H33V216ZM191 216H223V182H191V216Z" fill="#000000"/>
</svg>
