<svg width="256" height="256" viewBox="0 0 256 256" fill="none" xmlns="http://www.w3.org/2000/svg">
<path d="M157.551 94.8182C156.784 88.3409 153.673 83.3125 148.218 79.733C142.764 76.1534 136.073 74.3636 128.147 74.3636C122.352 74.3636 117.281 75.3011 112.934 77.1761C108.63 79.0511 105.264 81.6293 102.835 84.9105C100.448 88.1918 99.2552 91.9204 99.2552 96.0966C99.2552 99.5909 100.086 102.595 101.748 105.109C103.453 107.581 105.626 109.648 108.268 111.31C110.91 112.929 113.68 114.271 116.578 115.337C119.475 116.359 122.139 117.19 124.568 117.83L137.863 121.409C141.272 122.304 145.065 123.54 149.241 125.116C153.46 126.693 157.487 128.845 161.322 131.572C165.2 134.257 168.396 137.709 170.91 141.928C173.424 146.146 174.681 151.324 174.681 157.46C174.681 164.534 172.828 170.926 169.12 176.636C165.455 182.347 160.086 186.885 153.012 190.251C145.981 193.618 137.437 195.301 127.38 195.301C118.005 195.301 109.887 193.788 103.026 190.763C96.2083 187.737 90.839 183.518 86.9185 178.107C83.0407 172.695 80.8461 166.409 80.3347 159.25H96.6983C97.1245 164.193 98.7864 168.284 101.684 171.523C104.624 174.719 108.332 177.105 112.806 178.682C117.323 180.216 122.181 180.983 127.38 180.983C133.431 180.983 138.865 180.003 143.68 178.043C148.495 176.04 152.309 173.27 155.122 169.733C157.934 166.153 159.34 161.977 159.34 157.205C159.34 152.858 158.126 149.321 155.697 146.594C153.268 143.866 150.072 141.651 146.109 139.946C142.146 138.241 137.863 136.75 133.261 135.472L117.153 130.869C106.926 127.929 98.829 123.732 92.8631 118.277C86.8972 112.822 83.9142 105.685 83.9142 96.8636C83.9142 89.5341 85.8958 83.142 89.8588 77.6875C93.8645 72.1903 99.2338 67.929 105.967 64.9034C112.742 61.8352 120.306 60.3011 128.659 60.3011C137.096 60.3011 144.596 61.8139 151.159 64.8395C157.721 67.8224 162.92 71.9133 166.755 77.1122C170.633 82.3111 172.678 88.2131 172.892 94.8182H157.551Z" fill="#000000"/>
<rect x="43" y="204" width="170" height="17" fill="#000000"/>
<rect x="43" y="35" width="170" height="17" fill="#000000"/>
</svg>