<svg width="256" height="256" viewBox="0 0 256 256" fill="none" xmlns="http://www.w3.org/2000/svg">
<path d="M127.301 197.16C105.341 197.16 86.981 187.26 77.441 170.52L92.021 160.44C99.761 174.12 112.181 180.6 127.481 180.6C144.581 180.6 157.001 171.96 157.001 159.72C157.001 147.12 147.461 141.36 123.881 134.88C103.361 129.12 80.501 122.28 80.501 95.82C80.501 73.86 99.941 57.84 128.021 57.84C149.981 57.84 165.101 67.74 174.101 82.5L160.061 92.04C152.501 81.42 140.981 74.4 127.661 74.4C111.461 74.4 98.861 83.22 98.861 94.74C98.861 110.4 113.621 114.9 131.981 119.58C153.221 125.34 175.181 133.26 175.181 159C175.181 182.4 156.281 197.16 127.301 197.16Z" fill="#000000"/>
<rect x="43" y="204" width="170" height="17" fill="#000000"/>
<rect x="43" y="35" width="170" height="17" fill="#000000"/>
</svg>