<svg width="10" height="10" viewBox="0 0 10 10" fill="none" xmlns="http://www.w3.org/2000/svg">
<path d="M9.70625 1.70625C10.0969 1.31563 10.0969 0.68125 9.70625 0.290625C9.31563 -0.0999999 8.68125 -0.0999999 8.29063 0.290625L5 3.58437L1.70625 0.29375C1.31563 -0.096875 0.68125 -0.096875 0.290625 0.29375C-0.0999999 0.684375 -0.0999999 1.31875 0.290625 1.70937L3.58437 5L0.29375 8.29375C-0.0968748 8.68437 -0.0968748 9.31875 0.29375 9.70938C0.684375 10.1 1.31875 10.1 1.70938 9.70938L5 6.41562L8.29375 9.70625C8.68438 10.0969 9.31875 10.0969 9.70938 9.70625C10.1 9.31562 10.1 8.68125 9.70938 8.29063L6.41563 5L9.70625 1.70625Z" fill="#000000"/>
</svg>
